<?xml version="1.0" encoding="UTF-8"?>
<svg version="1.1" xmlns="http://www.w3.org/2000/svg" width="300" height="300">
<path d="M0 0 C99 0 198 0 300 0 C300 99 300 198 300 300 C201 300 102 300 0 300 C0 201 0 102 0 0 Z " fill="#EF4444" transform="translate(0,0)"/>
<path d="M0 0 C53.8549255 0 53.8549255 0 67.4375 10.4375 C77.54060807 20.54060807 80.17556093 32.79530793 80.25 46.6875 C80.270625 47.63044922 80.29125 48.57339844 80.3125 49.54492188 C80.36174001 58.50044868 78.83111638 66.94128018 73 74 C70.081707 76.76682451 67.07603571 79.41034601 64 82 C64.86625 82.515625 65.7325 83.03125 66.625 83.5625 C73.99956826 88.53118074 77.64831466 94.95995154 79.55859375 103.49609375 C82.00917664 122.94895088 80.96818636 142.67583741 69.8125 159.25 C51.6354414 177.02312397 22.71804194 172 0 172 C0 115.24 0 58.48 0 0 Z " fill="#FEFBFB" transform="translate(62,64)"/>
<path d="M0 0 C24.42 0 48.84 0 74 0 C74 7.92 74 15.84 74 24 C57.83 24 41.66 24 25 24 C25 40.83 25 57.66 25 75 C39.19 75 53.38 75 68 75 C68 82.92 68 90.84 68 99 C53.81 99 39.62 99 25 99 C25 123.09 25 147.18 25 172 C16.75 172 8.5 172 0 172 C0 115.24 0 58.48 0 0 Z " fill="#FEF9F9" transform="translate(164,64)"/>
<path d="M0 0 C20.87467363 0 20.87467363 0 26.54296875 5.49609375 C32.02125871 11.64957911 31.21576306 17.82753736 31.25 25.625 C31.270625 26.77613281 31.29125 27.92726562 31.3125 29.11328125 C31.3500342 37.34265357 31.03585091 44.60273826 25.375 50.9375 C17.19601287 55.93576991 9.80068146 55 0 55 C0 36.85 0 18.7 0 0 Z " fill="#EF4646" transform="translate(87,156)"/>
<path d="M0 0 C20.24825175 0 20.24825175 0 25 3 C30.68254792 8.69630711 31.22118822 14.38798261 31.25 22.1875 C31.22911875 36.27339797 31.22911875 36.27339797 26.60546875 41.609375 C18.87673216 48.57502114 10.60515533 46 0 46 C0 30.82 0 15.64 0 0 Z " fill="#EF4444" transform="translate(87,88)"/>
</svg>
