<svg viewBox="0 0 49 24" fill="none" xmlns="http://www.w3.org/2000/svg" aria-label="EA-APP" height="24px" width="49px" data-testid="EaAppIcon"><path d="M12.3889 2C6.83995 2 2.3418 6.47821 2.3418 12C2.3418 17.5241 6.83995 22 12.3889 22C17.9378 22 22.436 17.5241 22.436 12C22.436 6.47821 17.9378 2 12.3889 2ZM8.38583 8.06578H14.1612L13.2842 9.4633H7.50884L8.38583 8.06578ZM18.035 15.05L17.1569 13.6547H14.5934L15.4727 12.2572H16.2822L15.3034 10.7015L12.573 15.0488H5.28949L7.04348 12.2561H5.756L6.63185 10.8585H12.2631L11.3861 12.2583H8.70027L7.82214 13.6559H11.7943L15.3034 8.06578L19.6895 15.0511H18.035V15.05Z" fill="currentColor"></path><path d="M28.9372 15.1657H30.8249V10.8182C30.8249 8.98051 29.5022 8.02051 27.766 8.02051C26.1263 8.02051 24.8725 8.99422 24.5418 10.4891H26.3606C26.5948 9.89937 27.0082 9.57022 27.7109 9.57022C28.4136 9.57022 28.9372 9.98165 28.9372 10.8731V11.0925L26.7739 11.2845C25.4098 11.4079 24.4453 12.0525 24.4453 13.3005C24.4453 14.4937 25.4512 15.2754 26.7326 15.2754C27.7109 15.2754 28.4687 14.8502 28.9372 14.1371V15.1657ZM26.2917 13.2319C26.2917 12.8342 26.5535 12.5462 27.1184 12.4914L28.9372 12.2994V12.6559C28.9372 13.3554 28.0967 13.9588 27.3389 13.9588C26.705 13.9588 26.2917 13.6571 26.2917 13.2319Z" fill="currentColor"></path><path d="M34.4153 18.2651V14.2879C34.9251 14.9051 35.6554 15.2617 36.4408 15.2617C38.232 15.2617 39.7339 13.7531 39.7339 11.6548C39.7339 9.57022 38.2734 8.04794 36.5372 8.04794C35.7105 8.04794 34.9665 8.39079 34.4153 8.99422V8.14394H32.5414V18.2651H34.4153ZM36.1377 9.65251C37.1022 9.65251 37.86 10.4754 37.86 11.6548C37.86 12.8342 37.1022 13.6571 36.1377 13.6571C35.1594 13.6571 34.4015 12.8342 34.4015 11.6548C34.4015 10.4754 35.1594 9.65251 36.1377 9.65251Z" fill="currentColor"></path><path d="M43.0136 18.2651V14.2879C43.5235 14.9051 44.2537 15.2617 45.0391 15.2617C46.8304 15.2617 48.3323 13.7531 48.3323 11.6548C48.3323 9.57022 46.8717 8.04794 45.1356 8.04794C44.3089 8.04794 43.5648 8.39079 43.0136 8.99422V8.14394H41.1397V18.2651H43.0136ZM44.736 9.65251C45.7005 9.65251 46.4584 10.4754 46.4584 11.6548C46.4584 12.8342 45.7005 13.6571 44.736 13.6571C43.7577 13.6571 42.9999 12.8342 42.9999 11.6548C42.9999 10.4754 43.7577 9.65251 44.736 9.65251Z" fill="currentColor"></path></svg>